<?xml version="1.0" encoding="UTF-8"?>
<svg version="1.1" xmlns="http://www.w3.org/2000/svg" width="175" height="70">
<path d="M0 0 C39.27 0 78.54 0 119 0 C119 3.3 119 6.6 119 10 C79.73 10 40.46 10 0 10 C0 6.7 0 3.4 0 0 Z " fill="#D55272" transform="translate(1,47)"/>
<path d="M0 0 C4.12154676 3.6336902 6.64839941 7.74778553 7.15234375 13.32421875 C7.31399485 19.96892974 7.17107835 25.34536246 2.9140625 30.6875 C-1.98595378 35.44933795 -7.26734727 38.62737499 -14.27734375 38.71484375 C-21.57215272 38.23346042 -26.4874223 35.67428471 -31.3984375 30.3125 C-35.67641491 24.93936037 -36.85767227 19.50449051 -36.0859375 12.6875 C-34.75481045 5.25055106 -30.10657633 0.92724398 -24.0859375 -3.3125 C-15.53708421 -7.19834241 -7.34979522 -5.40196963 0 0 Z M-29.0859375 8.375 C-30.88577578 14.33696431 -31.27857545 20.13270367 -28.2734375 25.75 C-26.35024607 28.91718201 -26.35024607 28.91718201 -23.0859375 29.6875 C-23.4159375 27.7075 -23.7459375 25.7275 -24.0859375 23.6875 C-23.4259375 23.3575 -22.7659375 23.0275 -22.0859375 22.6875 C-22.5603125 22.171875 -23.0346875 21.65625 -23.5234375 21.125 C-25.59874985 17.88751273 -25.95371496 15.52195356 -26.0859375 11.6875 C-24.8175589 7.8077537 -23.71232309 6.13908031 -20.3984375 3.75 C-16.28335358 2.43006742 -13.19089757 2.27694788 -9.0859375 3.6875 C-6.44359981 5.88007809 -4.61923941 7.62089618 -3.0859375 10.6875 C-2.69023552 15.9305512 -3.44482832 18.28565137 -6.0859375 22.6875 C-6.33693617 26.39643908 -6.33693617 26.39643908 -6.0859375 29.6875 C-1.96208707 27.95114192 -0.61131775 26.02683075 1.20703125 22.03515625 C2.49863669 17.74645532 2.22890224 13.94342863 0.9140625 9.6875 C-1.23870641 6.01154554 -3.7930042 3.4912153 -7.3984375 1.25 C-16.38939264 -0.63182782 -23.38479302 0.7140871 -29.0859375 8.375 Z M-20.0859375 10.6875 C-20.77753151 12.53475052 -20.77753151 12.53475052 -21.0859375 14.6875 C-20.0959375 16.1725 -20.0959375 16.1725 -19.0859375 17.6875 C-19.0859375 15.3775 -19.0859375 13.0675 -19.0859375 10.6875 C-19.4159375 10.6875 -19.7459375 10.6875 -20.0859375 10.6875 Z M-10.0859375 10.6875 C-10.0859375 12.9975 -10.0859375 15.3075 -10.0859375 17.6875 C-9.4259375 17.3575 -8.7659375 17.0275 -8.0859375 16.6875 C-8.0859375 15.0375 -8.0859375 13.3875 -8.0859375 11.6875 C-8.7459375 11.3575 -9.4059375 11.0275 -10.0859375 10.6875 Z M-13.0859375 14.6875 C-12.0859375 16.6875 -12.0859375 16.6875 -12.0859375 16.6875 Z M-19.0859375 26.6875 C-18.7559375 27.6775 -18.4259375 28.6675 -18.0859375 29.6875 C-17.7559375 28.6975 -17.4259375 27.7075 -17.0859375 26.6875 C-17.7459375 26.6875 -18.4059375 26.6875 -19.0859375 26.6875 Z M-16.0859375 26.6875 C-15.0959375 28.1725 -15.0959375 28.1725 -14.0859375 29.6875 C-14.0859375 28.6975 -14.0859375 27.7075 -14.0859375 26.6875 C-14.7459375 26.6875 -15.4059375 26.6875 -16.0859375 26.6875 Z M-21.0859375 30.6875 C-18.08854809 32.68575961 -17.45246242 32.96300398 -14.0859375 32.9375 C-13.4053125 32.94265625 -12.7246875 32.9478125 -12.0234375 32.953125 C-9.76177743 32.78667603 -9.76177743 32.78667603 -7.0859375 30.6875 C-11.7059375 30.6875 -16.3259375 30.6875 -21.0859375 30.6875 Z " fill="#EC125B" transform="translate(167.0859375,18.3125)"/>
<path d="M0 0 C3.40654184 2.14760246 5.77828524 4.11272577 7 8 C7.47560726 13.23167982 6.69115424 15.62687437 4 20 C3.83300768 23.12521833 3.83300768 23.12521833 4 26 C3.67 26.66 3.34 27.32 3 28 C-2.69768835 29.43377278 -8.2755861 28.93672227 -14 28 C-15 21.25 -15 21.25 -15 19 C-15.515625 18.113125 -16.03125 17.22625 -16.5625 16.3125 C-18.33677918 12.22394363 -18.23867369 10.25794082 -17 6 C-11.96524894 -0.12334589 -7.82623324 -2.16271654 0 0 Z M-11 8 C-11.69159401 9.84725052 -11.69159401 9.84725052 -12 12 C-11.01 13.485 -11.01 13.485 -10 15 C-10 12.69 -10 10.38 -10 8 C-10.33 8 -10.66 8 -11 8 Z M-1 8 C-1 10.31 -1 12.62 -1 15 C-0.34 14.67 0.32 14.34 1 14 C1 12.35 1 10.7 1 9 C0.34 8.67 -0.32 8.34 -1 8 Z M-4 12 C-3 14 -3 14 -3 14 Z M-10 24 C-9.67 24.99 -9.34 25.98 -9 27 C-8.67 26.01 -8.34 25.02 -8 24 C-8.66 24 -9.32 24 -10 24 Z M-7 24 C-6.01 25.485 -6.01 25.485 -5 27 C-5 26.01 -5 25.02 -5 24 C-5.66 24 -6.32 24 -7 24 Z " fill="#21B6F3" transform="translate(158,21)"/>
<path d="M0 0 C1.2065625 0.0309375 1.2065625 0.0309375 2.4375 0.0625 C3.5 1.9375 3.5 1.9375 4.4375 4.0625 C4.1075 4.7225 3.7775 5.3825 3.4375 6.0625 C5.4175 7.3825 7.3975 8.7025 9.4375 10.0625 C10.4275 9.32 11.4175 8.5775 12.4375 7.8125 C12.994375 7.39484375 13.55125 6.9771875 14.125 6.546875 C15.87910248 4.8933053 15.87910248 4.8933053 15.4375 1.0625 C16.4375 0.0625 16.4375 0.0625 19 0 C20.2065625 0.0309375 20.2065625 0.0309375 21.4375 0.0625 C21.4375 4.0625 21.4375 4.0625 20.4375 7.0625 C18.80118108 8.11142238 17.13264137 9.11156703 15.4375 10.0625 C14.7775 10.7225 14.1175 11.3825 13.4375 12.0625 C13.69343812 14.0780127 13.95606032 16.09547857 14.34375 18.08984375 C14.4375 20.0625 14.4375 20.0625 12.4375 23.0625 C9.3125 23.25 9.3125 23.25 6.4375 23.0625 C6.42332031 22.31484375 6.40914062 21.5671875 6.39453125 20.796875 C6.25387964 14.52787405 6.25387964 14.52787405 3 9.4375 C1.48920963 8.626832 -0.02896288 7.82926856 -1.5625 7.0625 C-2.28943904 5.08361039 -2.96066251 3.08295442 -3.5625 1.0625 C-2.5625 0.0625 -2.5625 0.0625 0 0 Z " fill="#3A73B5" transform="translate(4.5625,22.9375)"/>
<path d="M0 0 C5 1 5 1 7.3125 4.0625 C7.869375 5.031875 8.42625 6.00125 9 7 C9.33 4.69 9.66 2.38 10 0 C11.65 0.33 13.3 0.66 15 1 C15 6.28 15 11.56 15 17 C10 17 10 17 8.41796875 15.46875 C8.01191406 14.8190625 7.60585938 14.169375 7.1875 13.5 C6.55908203 12.52546875 6.55908203 12.52546875 5.91796875 11.53125 C5.61503906 11.0259375 5.31210937 10.520625 5 10 C4.67 12.31 4.34 14.62 4 17 C2.68 17 1.36 17 0 17 C0 11.39 0 5.78 0 0 Z " fill="#D45576" transform="translate(36,22)"/>
<path d="M0 0 C5.33029323 0.63631528 7.34963762 2.85904186 10.68359375 6.85546875 C12 9 12 9 11.9375 12.5 C11.628125 13.325 11.31875 14.15 11 15 C5.06390334 15.89316269 -0.06975197 15.97040422 -6 15 C-6.33 12.69 -6.66 10.38 -7 8 C-5.02 7.67 -3.04 7.34 -1 7 C-1.20625 6.401875 -1.4125 5.80375 -1.625 5.1875 C-2 3 -2 3 0 0 Z M-2 11 C-1.67 11.99 -1.34 12.98 -1 14 C-0.67 13.01 -0.34 12.02 0 11 C-0.66 11 -1.32 11 -2 11 Z M1 11 C1.99 12.485 1.99 12.485 3 14 C3 13.01 3 12.02 3 11 C2.34 11 1.68 11 1 11 Z " fill="#1AB9F0" transform="translate(150,34)"/>
<path d="M0 0 C8 0 8 0 10.9375 1.5625 C13.66802141 4.78947985 14.07383065 6.79165269 14 11 C12.23358828 13.80189446 10.96950178 15.51524911 8 17 C5.36 17 2.72 17 0 17 C0 11.39 0 5.78 0 0 Z M4 4 C4 6.97 4 9.94 4 13 C7.74275212 12.42874646 7.74275212 12.42874646 9 11 C9.04063832 9.33382885 9.042721 7.66611905 9 6 C6.525 5.01 6.525 5.01 4 4 Z " fill="#D25474" transform="translate(52,22)"/>
<path d="M0 0 C1.32 0 2.64 0 4 0 C5.00419637 2.4566947 6.00350501 4.91518353 7 7.375 C7.28617188 8.07367188 7.57234375 8.77234375 7.8671875 9.4921875 C10 14.7734375 10 14.7734375 10 17 C8.35 17 6.7 17 5 17 C5 16.01 5 15.02 5 14 C3.02 14 1.04 14 -1 14 C-1.33 14.99 -1.66 15.98 -2 17 C-3.32 17 -4.64 17 -6 17 C-5.34496718 12.94180817 -4.05440879 9.46028718 -2.4375 5.6875 C-1.75494141 4.08455078 -1.75494141 4.08455078 -1.05859375 2.44921875 C-0.53458984 1.23685547 -0.53458984 1.23685547 0 0 Z M1 8 C1 8.66 1 9.32 1 10 C1.66 9.67 2.32 9.34 3 9 C2.34 8.67 1.68 8.34 1 8 Z " fill="#D25371" transform="translate(79,22)"/>
<path d="M0 0 C3.13512333 3.39638361 4.90042442 5.68062355 5.25 10.3125 C4.9872988 14.18734266 4.44168269 16.01572116 2 19 C1.01 19 0.02 19 -1 19 C-1.66 17.35 -2.32 15.7 -3 14 C-2.67 13.67 -2.34 13.34 -2 13 C-1.92851801 11.64756083 -1.91600546 10.29165633 -1.9375 8.9375 C-1.958125 7.638125 -1.97875 6.33875 -2 5 C-5.63 4.67 -9.26 4.34 -13 4 C-12.67 3.01 -12.34 2.02 -12 1 C-10.68 1.66 -9.36 2.32 -8 3 C-7.67 2.01 -7.34 1.02 -7 0 C-4.20824656 -1.39587672 -2.93876905 -0.97958968 0 0 Z " fill="#13BDF9" transform="translate(160,22)"/>
<path d="M0 0 C2.97 0 5.94 0 9 0 C9 1.32 9 2.64 9 4 C6.69 4 4.38 4 2 4 C2 4.66 2 5.32 2 6 C4.31 6 6.62 6 9 6 C9 7.32 9 8.64 9 10 C7.02 10 5.04 10 3 10 C3 12.31 3 14.62 3 17 C1.68 17 0.36 17 -1 17 C-1.02699725 14.72923158 -1.04639453 12.45837179 -1.0625 10.1875 C-1.07990234 8.29064453 -1.07990234 8.29064453 -1.09765625 6.35546875 C-1 3 -1 3 0 0 Z " fill="#3B72B8" transform="translate(111,22)"/>
<path d="M0 0 C0.99 0 1.98 0 3 0 C4.32 2.97 5.64 5.94 7 9 C8.32 6.03 9.64 3.06 11 0 C11.99 0 12.98 0 14 0 C13.34496718 4.05819183 12.05440879 7.53971282 10.4375 11.3125 C9.98246094 12.38113281 9.52742188 13.44976562 9.05859375 14.55078125 C8.70925781 15.35902344 8.35992187 16.16726562 8 17 C7.34 17 6.68 17 6 17 C4.9932996 14.73192796 3.99448234 12.46092246 3 10.1875 C2.71382813 9.54490234 2.42765625 8.90230469 2.1328125 8.24023438 C0.86288959 5.32243531 0 3.21734286 0 0 Z " fill="#3A6FBA" transform="translate(96,22)"/>
<path d="M0 0 C1.65 0 3.3 0 5 0 C5 5.61 5 11.22 5 17 C3.35 17 1.7 17 0 17 C0 11.39 0 5.78 0 0 Z " fill="#D25376" transform="translate(67,22)"/>
<path d="M0 0 C4.31180732 0.48405436 6.0589554 1.62004866 8.8125 4.9375 C9.41707031 5.64777344 10.02164063 6.35804687 10.64453125 7.08984375 C12 9 12 9 12 11 C10.02 11.33 8.04 11.66 6 12 C5.401875 11.236875 4.80375 10.47375 4.1875 9.6875 C2.1856586 7.06777452 2.1856586 7.06777452 0.1875 5.4375 C-0.204375 4.963125 -0.59625 4.48875 -1 4 C-0.6875 1.8125 -0.6875 1.8125 0 0 Z " fill="#B72D71" transform="translate(150,34)"/>
<path d="M0 0 C1.875 0.3125 1.875 0.3125 4 1 C4.66 1.99 5.32 2.98 6 4 C7.65 3.67 9.3 3.34 11 3 C10.25 7.75 10.25 7.75 8 10 C6.125 9.75 6.125 9.75 4 9 C3.278125 8.7525 2.55625 8.505 1.8125 8.25 C0 7 0 7 -0.8125 4.5 C-1 2 -1 2 0 0 Z " fill="#3F6FB4" transform="translate(12,14)"/>
<path d="M0 0 C0.66 0 1.32 0 2 0 C3 5 4 10 5 15 C2.00294806 15.32400561 0.52395176 15.3887384 -1.9375 13.5625 C-3.60541338 9.53988537 -2.27969366 6.04195926 -1 2 C-0.67 1.34 -0.34 0.68 0 0 Z " fill="#0EBFF6" transform="translate(144,26)"/>
<path d="M0 0 C1.32 0 2.64 0 4 0 C4 5.61 4 11.22 4 17 C2.68 17 1.36 17 0 17 C0 11.39 0 5.78 0 0 Z " fill="#D25473" transform="translate(30,22)"/>
<path d="M0 0 C2.97 0.33 5.94 0.66 9 1 C9 3.64 9 6.28 9 9 C8.34 9 7.68 9 7 9 C6.67 8.34 6.34 7.68 6 7 C5.01 7 4.02 7 3 7 C2.67 7.66 2.34 8.32 2 9 C1.34 9 0.68 9 0 9 C0 6.03 0 3.06 0 0 Z " fill="#3F78B7" transform="translate(148,27)"/>
<path d="M0 0 C0.99 0 1.98 0 3 0 C3 5.61 3 11.22 3 17 C2.01 17 1.02 17 0 17 C0 11.39 0 5.78 0 0 Z " fill="#3C75B6" transform="translate(92,22)"/>
<path d="M0 0 C0.66 0.33 1.32 0.66 2 1 C2 1.66 2 2.32 2 3 C2.639375 3.28875 3.27875 3.5775 3.9375 3.875 C6 5 6 5 7 7 C2.95858806 7.63394697 -0.9065307 8.12404452 -5 8 C-5 7.01 -5 6.02 -5 5 C-3.02 4.67 -1.04 4.34 1 4 C0.67 2.68 0.34 1.36 0 0 Z " fill="#6B72B3" transform="translate(148,37)"/>
<path d="M0 0 C1.67542976 0.28604898 3.34385343 0.61781233 5 1 C5 2.65 5 4.3 5 6 C3.34385343 6.38218767 1.67542976 6.71395102 0 7 C-1 6 -1 6 -1.125 3.5 C-1 1 -1 1 0 0 Z " fill="#CB5574" transform="translate(12,24)"/>
<path d="M0 0 C2.375 0.1875 2.375 0.1875 5 1 C6.3125 3.5625 6.3125 3.5625 7 6 C4.69 6 2.38 6 0 6 C-1.125 2.25 -1.125 2.25 0 0 Z " fill="#D11E61" transform="translate(150,34)"/>
<path d="M0 0 C2.375 0.1875 2.375 0.1875 5 1 C6.3125 3.5625 6.3125 3.5625 7 6 C5.1875 6.6875 5.1875 6.6875 3 7 C1.25 5.8125 1.25 5.8125 0 4 C0 2.68 0 1.36 0 0 Z " fill="#3771B5" transform="translate(5,17)"/>
<path d="M0 0 C5.61 0 11.22 0 17 0 C17 0.33 17 0.66 17 1 C14.02148438 1.34179688 14.02148438 1.34179688 11.04296875 1.68359375 C8.80603607 1.97170735 8.80603607 1.97170735 6 3 C6 2.34 6 1.68 6 1 C5.401875 1.495 4.80375 1.99 4.1875 2.5 C2 4 2 4 -1 4 C-0.67 2.68 -0.34 1.36 0 0 Z " fill="#F40D56" transform="translate(144,51)"/>
<path d="M0 0 C6.625 0.75 6.625 0.75 10 3 C8.35 3 6.7 3 5 3 C4.67 3.99 4.34 4.98 4 6 C2.35 5.01 0.7 4.02 -1 3 C-0.67 2.01 -0.34 1.02 0 0 Z " fill="#E01460" transform="translate(139,48)"/>
<path d="M0 0 C0.99 0 1.98 0 3 0 C6 6.625 6 6.625 6 10 C5.01 10 4.02 10 3 10 C0 3.375 0 3.375 0 0 Z " fill="#3473B2" transform="translate(96,22)"/>
<path d="M0 0 C2.31 0 4.62 0 7 0 C6.67 1.98 6.34 3.96 6 6 C4.35 6 2.7 6 1 6 C0.67 4.02 0.34 2.04 0 0 Z " fill="#514A48" transform="translate(30,40)"/>
<path d="M0 0 C0.99 0 1.98 0 3 0 C3.73080266 1.97746603 4.39421747 3.98072489 5 6 C4.67 6.66 4.34 7.32 4 8 C2.02 8 0.04 8 -2 8 C-1.01 7.67 -0.02 7.34 1 7 C0.67 4.69 0.34 2.38 0 0 Z " fill="#4B6EB1" transform="translate(13,38)"/>
<path d="M0 0 C0 1.98 0 3.96 0 6 C-1.98 6 -3.96 6 -6 6 C-5.67 4.35 -5.34 2.7 -5 1 C-1.125 0 -1.125 0 0 0 Z " fill="#4A4647" transform="translate(51,40)"/>
<path d="M0 0 C1.66666667 0 3.33333333 0 5 0 C5 1.98 5 3.96 5 6 C3.35 6 1.7 6 0 6 C-1 3 -1 3 0 0 Z " fill="#484043" transform="translate(58,40)"/>
<path d="M0 0 C1.65 0 3.3 0 5 0 C5 1.98 5 3.96 5 6 C3.35 6 1.7 6 0 6 C0 4.02 0 2.04 0 0 Z " fill="#47433F" transform="translate(77,40)"/>
<path d="M0 0 C-0.33 1.65 -0.66 3.3 -1 5 C-2.65 4.67 -4.3 4.34 -6 4 C-6 2.68 -6 1.36 -6 0 C-3.50907189 -1.24546405 -2.58919267 -0.7767578 0 0 Z M-4 1 C-4 1.66 -4 2.32 -4 3 C-3.34 3 -2.68 3 -2 3 C-2 2.34 -2 1.68 -2 1 C-2.66 1 -3.32 1 -4 1 Z " fill="#434344" transform="translate(89,41)"/>
<path d="M0 0 C0 1.32 0 2.64 0 4 C-1.65 4.33 -3.3 4.66 -5 5 C-5.33 3.35 -5.66 1.7 -6 0 C-3.50907189 -1.24546405 -2.58919267 -0.7767578 0 0 Z M-4 1 C-4 1.66 -4 2.32 -4 3 C-3.34 3 -2.68 3 -2 3 C-2 2.34 -2 1.68 -2 1 C-2.66 1 -3.32 1 -4 1 Z " fill="#434241" transform="translate(44,41)"/>
<path d="M0 0 C0 2 0 2 -1.25 3.6875 C-3 5 -3 5 -5.125 4.875 C-5.74375 4.58625 -6.3625 4.2975 -7 4 C-7.33 3.01 -7.66 2.02 -8 1 C-5.07175348 0.02391783 -3.04386724 -0.08226668 0 0 Z " fill="#27BAFA" transform="translate(155,20)"/>
<path d="M0 0 C1.32 0 2.64 0 4 0 C6 3 6 3 7 5 C4.69 5 2.38 5 0 5 C0 3.35 0 1.7 0 0 Z " fill="#38B1DF" transform="translate(144,44)"/>
<path d="M0 0 C1.32 0.66 2.64 1.32 4 2 C3.34 3.32 2.68 4.64 2 6 C1.01 6 0.02 6 -1 6 C-1.042721 4.33388095 -1.04063832 2.66617115 -1 1 C-0.67 0.67 -0.34 0.34 0 0 Z " fill="#3E3937" transform="translate(96,40)"/>
<path d="M0 0 C1.65 0 3.3 0 5 0 C4.67 1.98 4.34 3.96 4 6 C3.01 6 2.02 6 1 6 C0.67 4.02 0.34 2.04 0 0 Z " fill="#4B4944" transform="translate(104,40)"/>
<path d="M0 0 C6.15234375 0.5859375 6.15234375 0.5859375 8 1 C8.33 1.66 8.66 2.32 9 3 C8.67 3.66 8.34 4.32 8 5 C7.34 5 6.68 5 6 5 C6 4.34 6 3.68 6 3 C4.02 3 2.04 3 0 3 C0 2.01 0 1.02 0 0 Z " fill="#40B6E7" transform="translate(153,44)"/>
<path d="M0 0 C0.99 0 1.98 0 3 0 C3 1.65 3 3.3 3 5 C1.68 5.33 0.36 5.66 -1 6 C-1.042721 4.33388095 -1.04063832 2.66617115 -1 1 C-0.67 0.67 -0.34 0.34 0 0 Z " fill="#4E4643" transform="translate(69,40)"/>
<path d="M0 0 C0.99 0 1.98 0 3 0 C3 1.65 3 3.3 3 5 C1.68 5.33 0.36 5.66 -1 6 C-1.042721 4.33388095 -1.04063832 2.66617115 -1 1 C-0.67 0.67 -0.34 0.34 0 0 Z " fill="#4A4145" transform="translate(91,40)"/>
<path d="M0 0 C0.99 0 1.98 0 3 0 C3.33 1.65 3.66 3.3 4 5 C2.35 5 0.7 5 -1 5 C-1.33 4.01 -1.66 3.02 -2 2 C-1.34 2 -0.68 2 0 2 C0 1.34 0 0.68 0 0 Z " fill="#1EBCF0" transform="translate(145,36)"/>
<path d="M0 0 C1.98 0.99 1.98 0.99 4 2 C3.34 3.65 2.68 5.3 2 7 C1.34 7 0.68 7 0 7 C0 4.69 0 2.38 0 0 Z " fill="#B0E4FA" transform="translate(148,29)"/>
<path d="M0 0 C0.66 0 1.32 0 2 0 C2.66 1.98 3.32 3.96 4 6 C2.35 6 0.7 6 -1 6 C-0.67 4.02 -0.34 2.04 0 0 Z " fill="#494947" transform="translate(111,40)"/>
<path d="M0 0 C0.99 0 1.98 0 3 0 C3 1.98 3 3.96 3 6 C2.01 6 1.02 6 0 6 C0 4.02 0 2.04 0 0 Z " fill="#524749" transform="translate(53,40)"/>
<path d="M0 0 C0.99 0.33 1.98 0.66 3 1 C3.66 0.67 4.32 0.34 5 0 C5 1.65 5 3.3 5 5 C4.01 5 3.02 5 2 5 C1.34 3.35 0.68 1.7 0 0 Z " fill="#35B7EB" transform="translate(157,36)"/>
<path d="M0 0 C0.66 0 1.32 0 2 0 C2 2.31 2 4.62 2 7 C1.34 7 0.68 7 0 7 C0 6.01 0 5.02 0 4 C-0.66 3.67 -1.32 3.34 -2 3 C-1.34 2.01 -0.68 1.02 0 0 Z " fill="#B4DFF6" transform="translate(155,29)"/>
<path d="M0 0 C-0.8125 2.4375 -0.8125 2.4375 -2 5 C-2.99 5.33 -3.98 5.66 -5 6 C-5.33 4.68 -5.66 3.36 -6 2 C-2.25 0 -2.25 0 0 0 Z " fill="#15B7EC" transform="translate(164,27)"/>
<path d="M0 0 C0.66 0 1.32 0 2 0 C2 1.32 2 2.64 2 4 C2.66 4 3.32 4 4 4 C4 4.66 4 5.32 4 6 C2.68 6 1.36 6 0 6 C0 4.02 0 2.04 0 0 Z " fill="#4C4645" transform="translate(116,40)"/>
<path d="M0 0 C0.66 0 1.32 0 2 0 C2 1.98 2 3.96 2 6 C1.34 6 0.68 6 0 6 C0 4.02 0 2.04 0 0 Z " fill="#4F4A48" transform="translate(101,40)"/>
<path d="M0 0 C0.66 0 1.32 0 2 0 C1.67 0.99 1.34 1.98 1 3 C0.34 3 -0.32 3 -1 3 C-0.67 2.01 -0.34 1.02 0 0 Z " fill="#4E4245" transform="translate(65,40)"/>
<path d="" fill="#564548" transform="translate(0,0)"/>
</svg>
